PathFileType	4	(X/Y/Z)	s11c0303.trc
DataRate	CameraRate	NumFrames	NumMarkers	Units	OrigDataRate	OrigDataStartFrame	OrigNumFrames
200	200	4	48	mm	200	1750	2000
Frame#	Time	racr			lacr			c7			jug			rlel			rdr			llel			ldr			s2			lic			ric			lasi			rasi			rpsi			lpsi			rgt			lgt			rth1			rth2			rth3			rth4			rlfc			rmfc			rsh1			rsh2			rsh3			rsh4			rlmal			rcal			rtoe			rmt5			lth1			lth2			lth4			lth3			llfc			lmfc			llmal			lcal			lmt5			lsh1			lsh2			lsh3			lsh4			ltoe			SBIKE			LBIKE			RBIKE			
		X1	Y1	Z1	X2	Y2	Z2	X3	Y3	Z3	X4	Y4	Z4	X5	Y5	Z5	X6	Y6	Z6	X7	Y7	Z7	X8	Y8	Z8	X9	Y9	Z9	X10	Y10	Z10	X11	Y11	Z11	X12	Y12	Z12	X13	Y13	Z13	X14	Y14	Z14	X15	Y15	Z15	X16	Y16	Z16	X17	Y17	Z17	X18	Y18	Z18	X19	Y19	Z19	X20	Y20	Z20	X21	Y21	Z21	X22	Y22	Z22	X23	Y23	Z23	X24	Y24	Z24	X25	Y25	Z25	X26	Y26	Z26	X27	Y27	Z27	X28	Y28	Z28	X29	Y29	Z29	X30	Y30	Z30	X31	Y31	Z31	X32	Y32	Z32	X33	Y33	Z33	X34	Y34	Z34	X35	Y35	Z35	X36	Y36	Z36	X37	Y37	Z37	X38	Y38	Z38	X39	Y39	Z39	X40	Y40	Z40	X41	Y41	Z41	X42	Y42	Z42	X43	Y43	Z43	X44	Y44	Z44	X45	Y45	Z45	X46	Y46	Z46	X47	Y47	Z47	X48	Y48	Z48	
1750	8.7500	864.677364	1326.870902	-102.322643	866.845274	1275.190659	-442.489986	857.769326	1397.618534	-286.243007	819.582550	1216.908492	-273.919094	691.038952	1138.282860	52.899265	803.143745	931.431456	-66.045624	635.370146	1128.489456	-618.207435	793.569547	921.864100	-487.111278	234.512287	1276.748836	-263.660030	441.857875	1222.491808	-473.162089	470.424753	1276.925638	-79.044683	458.217238	1152.891150	-431.144645	481.370556	1198.736048	-110.448984	295.255353	1354.545917	-224.324522	290.813830	1335.907993	-316.179474	404.878843	1152.450382	-42.684132	309.988944	1121.461584	-457.575535	508.771844	1060.718476	-39.733092	584.388243	1014.688634	-55.147183	626.693063	937.768517	-60.769056	604.303712	1038.014784	-75.870167	687.891794	848.962156	-76.918987	675.205013	825.011144	-208.841530	553.488537	756.321579	-63.532843	492.027493	696.347320	-83.399656	408.031850	672.688350	-85.244476	507.872852	675.013976	-112.291664	288.444867	617.755550	-96.687130	250.269794	667.854651	-143.935348	325.594155	390.648899	-153.725045	276.950734	443.167689	-82.759793	335.863792	982.322482	-468.781768	363.535706	902.531191	-458.265073	400.230029	904.210869	-454.010052	346.295357	814.780879	-447.203808	356.670273	676.220366	-419.798810	357.133817	666.670387	-291.156195	183.390016	279.153787	-412.745195	120.142236	265.545823	-380.876144	287.964864	143.753046	-454.876082	299.554629	563.530758	-442.819527	292.487788	479.137877	-431.629356	243.521252	405.470216	-429.887836	323.594243	472.325722	-410.561504	387.457716	129.251122	-388.957872	-215.422945	949.370314	-257.672923	-17.847244	80.524416	-460.811317	-17.869394	81.011251	-62.017909	
1751	8.7550	863.058463	1327.498414	-97.809604	868.829727	1277.560367	-438.734500	857.906140	1397.721912	-282.100275	820.174777	1216.788342	-271.996688	688.781388	1137.026483	54.854183	802.884513	931.628353	-65.761539	640.316500	1130.235656	-617.863512	794.919937	921.746675	-485.985886	234.617850	1276.307744	-267.820224	445.465779	1221.639062	-472.645924	467.279892	1277.524603	-78.325457	461.255392	1153.217119	-430.026058	478.826767	1199.586101	-110.776926	294.096428	1354.320423	-227.719297	291.683514	1335.471780	-319.675822	403.335750	1154.270924	-43.479116	311.740187	1120.393230	-458.935293	509.230016	1063.976763	-39.736511	585.639766	1018.967018	-55.035770	628.744575	943.049771	-59.280156	605.460112	1042.934666	-75.025896	692.662453	855.223931	-75.369180	681.852923	830.765228	-207.513336	560.492597	761.473493	-63.501767	499.460363	701.443012	-82.626852	415.394589	676.876178	-84.858704	515.244828	679.968093	-111.385458	296.509715	619.475034	-96.845030	257.277163	669.187740	-143.946079	337.166139	393.039759	-154.526621	288.009295	445.282057	-82.770814	335.686790	982.423269	-469.615876	361.881508	902.320989	-459.182303	398.525585	903.485568	-454.015424	343.409134	815.118787	-448.829590	350.138097	675.778026	-420.863884	349.476512	666.849014	-290.909011	175.043938	279.200469	-412.945705	111.984426	266.965149	-380.832950	277.749926	142.283566	-454.709284	291.303511	563.483746	-443.646434	283.871759	479.053437	-432.459872	234.492039	405.752853	-430.374739	314.096637	470.813264	-410.301996	377.004258	126.366925	-388.802522	-215.484288	949.347417	-257.627668	-17.840462	80.582808	-460.865583	-17.864013	81.016798	-61.996143	
1752	8.7600	861.478930	1327.587044	-93.945836	870.704018	1279.674847	-435.004928	858.102083	1397.783178	-278.178712	820.631879	1216.705113	-270.059763	686.454915	1135.606170	56.683679	802.544255	931.815744	-65.457475	645.057184	1132.027544	-617.352422	796.163162	921.833042	-484.861700	234.760888	1276.034006	-271.854768	449.180252	1220.910972	-471.870871	464.053754	1278.153571	-77.581451	464.274118	1153.632381	-428.512250	476.640035	1201.453247	-111.262653	293.069908	1354.196126	-230.955547	292.493542	1335.386830	-323.249811	401.843166	1156.363473	-43.758901	313.516491	1119.564107	-460.206974	508.948911	1067.024681	-39.212966	586.606537	1022.728730	-55.385876	630.725312	948.102577	-58.660122	606.190775	1047.590172	-73.889423	696.834867	861.440788	-73.913274	689.829076	836.441787	-204.067268	567.329829	766.435177	-63.118244	505.941770	705.764576	-82.444986	422.900711	680.403492	-84.581496	522.874626	684.507773	-110.576531	304.526717	620.596411	-96.961396	264.003468	669.926076	-144.153416	349.217046	395.427848	-154.630133	299.157302	446.689263	-82.831547	335.739058	983.263439	-470.908342	360.576551	902.637737	-460.454649	397.093610	903.269458	-454.327834	340.587581	815.678720	-450.349790	344.165471	675.794009	-421.910559	343.220385	667.396694	-291.285732	166.837691	279.772134	-413.125114	104.096012	269.239367	-380.947110	267.431336	141.550929	-454.701761	283.640089	563.987108	-444.863718	275.794221	479.683627	-433.685761	225.930599	406.600297	-431.062893	306.127517	470.853971	-411.331778	366.512276	124.062389	-388.816651	-215.551708	949.359838	-257.588007	-17.873793	80.700726	-460.782942	-17.858745	81.009479	-62.000611	
1753	8.7650	859.747729	1327.447355	-89.968043	873.072671	1281.872290	-431.255633	858.306771	1397.680875	-274.065827	821.500739	1216.386789	-268.278046	683.978714	1134.054419	58.457958	802.069068	931.951590	-65.303809	649.416923	1133.562484	-616.427198	797.254925	922.162295	-483.967632	234.768493	1276.114898	-275.790329	452.790666	1220.482048	-470.881480	460.673909	1278.848530	-76.755137	467.205904	1154.182544	-426.805108	474.348787	1203.428727	-111.606532	292.288153	1354.091179	-233.384131	293.547919	1335.519278	-326.794630	400.404882	1158.902101	-43.839867	315.321356	1119.191251	-461.455428	508.453693	1069.726015	-38.537918	586.691797	1027.255304	-53.512170	632.304342	952.863257	-58.201452	605.679408	1052.043352	-72.324179	700.823376	867.784543	-73.832965	695.481201	842.532287	-204.181996	573.730590	771.434276	-62.481370	513.223520	709.822407	-82.025433	430.592477	683.352988	-84.192938	530.493891	688.911311	-109.997723	312.536356	621.172002	-97.143853	270.466129	670.154935	-144.681600	361.284662	397.161801	-154.771359	310.307846	447.560104	-82.912837	335.934644	984.370453	-472.438329	359.520660	903.420187	-461.805426	395.983967	903.503292	-455.053655	338.193800	816.735293	-451.775810	338.898540	676.293314	-423.451909	338.492889	668.351217	-292.268389	158.844391	281.252522	-413.494246	96.417127	272.449066	-381.165307	257.200670	141.328271	-454.682552	276.755055	565.168669	-446.292952	268.380748	480.893305	-435.120226	217.963857	408.179874	-431.968315	299.087189	471.953853	-413.690589	355.997730	122.381090	-388.838839	-215.574299	949.370942	-257.510137	-17.846719	80.619638	-460.860730	-17.863964	81.042009	-62.005185	
